<svg xmlns="http://www.w3.org/2000/svg" viewBox="0 0 800 900" role="img" aria-labelledby="title">
  <title id="title">Orangefarbener Sunset Breeze</title>
  <defs><linearGradient id="b" x1="0" y1="0" x2="1" y2="1"><stop stop-color="#3a1733"/><stop offset="1" stop-color="#122a40"/></linearGradient><linearGradient id="d" x1="0" y1="0" x2="0" y2="1"><stop stop-color="#ffd35a"/><stop offset=".55" stop-color="#ff7744"/><stop offset="1" stop-color="#bd255f"/></linearGradient></defs>
  <rect width="800" height="900" fill="url(#b)"/><circle cx="650" cy="130" r="230" fill="#ffbd4a" opacity=".2"/><circle cx="90" cy="760" r="220" fill="#ec3c7b" opacity=".16"/>
  <path d="M235 190h330l-43 541c-5 61-56 109-118 109h-8c-62 0-113-48-118-109z" fill="#f0f7ff" opacity=".16" stroke="#f4f8ff" stroke-width="12"/>
  <path d="M267 330h266l-31 392c-4 50-46 89-96 89h-12c-50 0-92-39-96-89z" fill="url(#d)"/>
  <ellipse cx="400" cy="332" rx="133" ry="24" fill="#ffd65d"/><circle cx="514" cy="252" r="76" fill="#ffbd3c" stroke="#ffe29a" stroke-width="8"/><circle cx="514" cy="252" r="50" fill="none" stroke="#fff0b6" stroke-width="5" stroke-dasharray="4 12"/>
  <path d="M314 194c82-17 145 2 188 58-78 11-136-9-188-58z" fill="#4baf62"/>
</svg>
